<svg xmlns="http://www.w3.org/2000/svg" viewBox="0 0 950 950" width="1024" height="1024" style="shape-rendering:geometricPrecision;text-rendering:geometricPrecision;image-rendering:optimizeQuality;fill-rule:evenodd;clip-rule:evenodd"><path style="opacity:.988" fill="#f000b8" d="M453.5-.5h42c-.167 104.334 0 208.667.5 313a23239.972 23239.972 0 0 0 38.5-145 1838.876 1838.876 0 0 0 41 10 11464.131 11464.131 0 0 0-37.5 144 26623 26623 0 0 1 156.5-269l31 17.5c1.827.9 3.16 2.233 4 4a64399.146 64399.146 0 0 1-154 267.5 5024.296 5024.296 0 0 0 104.5-103 1248.51 1248.51 0 0 1 29.5 30 15359.264 15359.264 0 0 1-104 104.5 27742.092 27742.092 0 0 0 269-154.5 487.434 487.434 0 0 1 22 36 68405.39 68405.39 0 0 1-270 156.5 11202.924 11202.924 0 0 0 142-37.5c1.147.318 1.981.984 2.5 2 3.682 12.978 6.848 25.811 9.5 38.5l-142 38c640.33.5 1280.67.667 1921 .5v43c-640.33-.167-1280.67 0-1921 .5a8700.673 8700.673 0 0 1 143 39 622.238 622.238 0 0 0-10.5 37.5c-.674 1.078-1.674 1.745-3 2A8345.873 8345.873 0 0 0 625.5 537a27146.038 27146.038 0 0 1 271 156.5 487.434 487.434 0 0 1-22 36 27742.092 27742.092 0 0 0-269-154.5 15359.264 15359.264 0 0 1 104 104.5 1248.51 1248.51 0 0 1-29.5 30 5024.296 5024.296 0 0 0-104.5-103 64399.146 64399.146 0 0 1 154 267.5c-.84 1.767-2.173 3.101-4 4l-31 17.5a26623 26623 0 0 1-156.5-269 11464.131 11464.131 0 0 0 37.5 144 1838.876 1838.876 0 0 0-41 10 23239.972 23239.972 0 0 0-38.5-145c-.5 104.666-.667 209.333-.5 314h-42c.167-104.334 0-208.667-.5-313a34838.799 34838.799 0 0 1-38.5 143l-1.5 1a684.852 684.852 0 0 0-39.5-10 11464.131 11464.131 0 0 0 37.5-144 35062.094 35062.094 0 0 1-156 269 313.86 313.86 0 0 1-35.5-21.5 104321.554 104321.554 0 0 0 154-267.5 5024.296 5024.296 0 0 0-104.5 103 1248.51 1248.51 0 0 1-29.5-30 15065.99 15065.99 0 0 1 103-103.5l-1-.5-267 154a403.446 403.446 0 0 1-21-35.5 3.942 3.942 0 0 1 1-2 52751.655 52751.655 0 0 0 267-154A6223.188 6223.188 0 0 0 181 574.5c-1.326-.255-2.326-.922-3-2l-9.5-36a4.933 4.933 0 0 1 1-2.5l142-38c-103.999-.5-207.999-.667-312-.5v-43c103.667.167 207.334 0 311-.5a21994.673 21994.673 0 0 0-141-38 4.933 4.933 0 0 1-1-2.5l9.5-36c.674-1.078 1.674-1.745 3-2A5447.108 5447.108 0 0 0 321.5 410a52751.655 52751.655 0 0 0-267-154 3.942 3.942 0 0 1-1-2 403.446 403.446 0 0 1 21-35.5l267 154a4879.724 4879.724 0 0 0-101.5-103c-.667-.667-.667-1.333 0-2l29-29 104 104a17958.94 17958.94 0 0 0-153-267c-.684-1.284-.517-2.45.5-3.5A1723.809 1723.809 0 0 0 255 52.5a52981.462 52981.462 0 0 1 156 269 5572.884 5572.884 0 0 0-37.5-142c.881-1.471 2.214-2.304 4-2.5a2782.044 2782.044 0 0 0 35.5-9.5l1.5 1a34838.799 34838.799 0 0 1 38.5 143c.5-103.999.667-207.999.5-312Z"/></svg>