<?xml version="1.0" standalone="no"?>
<!DOCTYPE svg PUBLIC "-//W3C//DTD SVG 20010904//EN"
 "http://www.w3.org/TR/2001/REC-SVG-20010904/DTD/svg10.dtd">
<svg version="1.0" xmlns="http://www.w3.org/2000/svg"
 width="700.000000pt" height="700.000000pt" viewBox="0 0 700.000000 700.000000"
 preserveAspectRatio="xMidYMid meet">
<metadata>
Created by potrace 1.14, written by Peter Selinger 2001-2017
</metadata>
<g transform="translate(0.000000,700.000000) scale(0.100000,-0.100000)"
fill="#000000" stroke="none">
<path d="M3342 6558 c-1 -244 -1 -758 -2 -1143 l-2 -700 -24 85 c-19 67 -227
832 -238 875 -2 6 -6 27 -11 48 -5 27 -12 37 -26 37 -25 0 -271 -68 -280 -77
-3 -5 20 -105 52 -223 59 -214 158 -591 185 -705 8 -33 19 -73 24 -89 12 -38
-1 -24 -33 36 -14 25 -92 160 -173 300 -81 139 -156 269 -166 288 -86 153
-754 1298 -763 1308 -9 10 -37 -2 -136 -59 -68 -39 -126 -73 -129 -76 -7 -6
11 -37 301 -538 141 -242 271 -467 289 -500 18 -33 36 -64 40 -70 4 -5 18 -30
32 -55 14 -25 62 -110 108 -190 45 -80 94 -165 108 -190 14 -25 72 -128 130
-230 57 -102 107 -189 110 -195 2 -5 -166 160 -375 369 l-380 378 -107 -105
c-58 -59 -106 -110 -106 -114 1 -4 165 -174 365 -377 200 -204 363 -371 361
-373 -4 -4 18 -17 -716 407 -888 512 -1162 670 -1197 692 l-32 19 -44 -68
c-24 -37 -60 -98 -80 -135 -38 -70 -38 -69 8 -94 21 -11 413 -237 955 -549
712 -410 949 -549 946 -553 -4 -3 -292 68 -546 134 -52 14 -102 27 -110 29 -8
2 -51 13 -95 25 -209 57 -260 69 -266 62 -9 -9 -81 -283 -76 -288 1 -2 88 -26
192 -53 105 -28 204 -55 220 -60 17 -5 66 -18 110 -30 44 -12 139 -37 210 -57
72 -19 168 -45 215 -57 l85 -22 -280 -5 c-154 -3 -666 -5 -1137 -5 l-858 0 0
-157 0 -158 813 -1 c1166 -1 1437 -3 1437 -10 0 -8 11 -4 -235 -69 -104 -28
-320 -86 -480 -129 l-290 -78 3 -29 c5 -44 62 -248 72 -258 5 -5 153 29 357
82 517 135 666 172 671 167 3 -2 -4 -8 -14 -12 -10 -4 -47 -24 -82 -45 -34
-21 -64 -38 -67 -38 -3 0 -28 -15 -57 -33 -29 -19 -60 -37 -68 -41 -8 -4 -24
-12 -35 -19 -11 -7 -74 -43 -140 -81 -66 -38 -201 -117 -300 -174 -99 -58
-198 -115 -220 -127 -212 -120 -934 -537 -950 -548 -17 -13 -18 -17 -7 -43 26
-58 136 -234 146 -233 6 0 23 8 38 17 15 9 71 42 125 73 54 31 168 97 253 146
85 49 247 143 360 208 113 65 277 159 365 210 88 51 177 102 197 113 20 12 55
32 77 46 22 15 43 26 45 26 3 0 46 25 97 55 50 30 93 55 94 55 2 0 63 36 138
79 189 111 189 111 153 72 -16 -17 -181 -183 -365 -369 -185 -186 -342 -346
-350 -356 -13 -16 -5 -27 90 -122 57 -57 107 -104 111 -104 4 0 110 102 236
228 253 251 474 467 511 497 20 18 19 13 -9 -35 -18 -30 -41 -67 -52 -82 -10
-15 -18 -29 -18 -32 0 -3 -22 -43 -49 -88 -49 -85 -226 -391 -266 -463 -13
-22 -62 -107 -109 -189 -47 -82 -86 -150 -86 -152 0 -1 -22 -39 -50 -84 -27
-45 -50 -83 -50 -86 0 -2 -62 -111 -138 -242 -207 -355 -285 -493 -281 -497 7
-6 164 -102 211 -128 l46 -26 40 67 c22 37 49 83 60 102 10 19 122 211 247
425 125 215 235 404 244 420 9 17 29 49 44 72 15 24 27 45 27 47 0 2 27 50 60
106 33 56 60 103 60 105 0 1 37 65 81 141 45 77 93 159 107 184 59 106 164
286 172 294 5 4 -2 -28 -15 -73 -12 -45 -23 -84 -24 -86 0 -3 -1 -6 -2 -7 0
-2 -2 -12 -4 -23 -5 -23 -153 -590 -194 -743 -16 -56 -25 -105 -21 -107 21
-13 285 -74 290 -68 6 7 37 110 45 151 2 9 14 58 28 107 14 50 62 227 107 395
45 168 87 323 95 345 12 35 14 -35 15 -520 0 -308 2 -823 3 -1145 l2 -585 153
0 152 -1 1 761 c0 928 3 1515 7 1515 6 0 22 -53 56 -181 19 -74 49 -188 67
-254 61 -230 130 -490 134 -509 7 -32 26 -86 31 -86 7 0 289 72 291 74 2 1 -6
34 -16 72 -61 218 -252 967 -248 970 1 2 18 -25 37 -60 19 -35 67 -119 106
-187 40 -68 121 -209 181 -314 61 -104 235 -404 388 -665 153 -261 311 -532
352 -602 41 -71 80 -128 86 -128 21 0 247 134 247 146 0 7 -13 36 -30 64 -16
28 -30 52 -30 54 0 2 -17 33 -38 67 -21 35 -52 89 -69 119 -17 30 -63 111
-103 180 -40 69 -83 143 -95 165 -13 22 -54 94 -92 160 -38 66 -75 129 -81
140 -6 11 -56 98 -112 193 -55 96 -100 176 -100 178 0 3 -8 17 -19 32 -16 23
-258 443 -329 572 -29 53 -36 59 441 -411 159 -156 292 -285 297 -287 5 -2 56
45 114 105 l105 108 -372 373 c-205 205 -374 376 -377 379 -10 11 63 -30 470
-263 228 -130 434 -247 457 -260 23 -13 199 -114 390 -225 711 -410 644 -375
660 -353 26 35 143 232 143 240 0 8 -27 25 -155 97 -27 16 -54 32 -60 37 -5 4
-30 19 -55 32 -25 14 -96 55 -158 92 -62 36 -117 66 -123 66 -5 0 -9 5 -9 10
0 6 -4 10 -9 10 -5 0 -92 48 -193 107 -101 58 -196 114 -213 123 -16 10 -143
82 -280 162 -138 79 -275 158 -305 175 -30 17 -111 62 -178 102 -68 39 -126
71 -128 71 -2 0 -25 14 -51 30 -26 17 -41 30 -34 30 19 0 546 -137 885 -230
60 -17 117 -30 127 -30 13 0 22 20 38 83 12 45 30 108 41 139 14 43 15 59 7
66 -10 7 -150 48 -227 66 -8 2 -55 16 -105 30 -49 14 -225 61 -390 106 -164
44 -300 82 -301 83 -1 1 505 2 1124 2 620 -1 1133 1 1140 3 9 3 12 45 12 163
l0 159 -1137 1 c-645 0 -1127 4 -1113 9 14 5 180 50 370 100 469 125 620 167
626 173 5 5 -50 238 -66 274 -6 14 -16 21 -27 18 -10 -2 -61 -16 -113 -30
-111 -30 -273 -73 -455 -121 -71 -19 -191 -50 -265 -70 -74 -20 -148 -38 -165
-41 l-30 -5 30 17 c26 14 180 102 227 130 20 12 232 133 298 171 25 14 62 37
82 50 21 13 39 24 42 24 2 0 81 45 174 100 94 55 186 107 206 117 20 9 36 20
36 25 0 4 4 8 9 8 7 0 228 125 301 171 8 5 69 40 135 77 125 72 319 185 345
202 8 5 30 17 48 26 18 9 35 20 38 25 6 10 -40 96 -108 201 l-44 68 -199 -115
c-110 -63 -207 -119 -215 -124 -13 -8 -576 -333 -688 -397 -373 -214 -865
-494 -867 -494 -2 0 167 172 375 381 l379 382 -109 110 -108 111 -195 -194
c-251 -252 -567 -560 -567 -554 0 3 43 79 95 169 52 91 212 369 355 618 143
248 265 459 270 467 108 180 401 704 397 713 -5 12 -246 152 -251 145 -9 -9
-783 -1333 -865 -1479 -113 -199 -275 -478 -278 -476 -3 4 172 688 238 926 16
57 27 107 24 109 -3 3 -70 22 -150 42 l-145 37 -14 -51 c-11 -40 -208 -777
-220 -821 -1 -5 -11 -45 -21 -87 -10 -43 -21 -78 -25 -78 -6 0 -8 371 -9 1523
l-1 747 -154 0 -154 0 0 -442z"/>
</g>
</svg>
